<mxfile host="app.diagrams.net" modified="2024-02-08T16:03:35.008Z" agent="Mozilla/5.0 (Macintosh; Intel Mac OS X 10_15_7) AppleWebKit/537.36 (KHTML, like Gecko) Chrome/121.0.0.0 Safari/537.36" etag="06auOKIHY5E_Me-PjcuR" version="22.1.18" type="google">
  <diagram name="Page-1" id="RVX6t5TGBaQ7rliDouaV">
    <mxGraphModel dx="763" dy="392" grid="1" gridSize="10" guides="1" tooltips="1" connect="1" arrows="1" fold="1" page="1" pageScale="1" pageWidth="150" pageHeight="100" math="0" shadow="0">
      <root>
        <mxCell id="0" />
        <mxCell id="1" parent="0" />
        <mxCell id="z2hC-M6QyXwjL48q8HnM-2" style="edgeStyle=orthogonalEdgeStyle;rounded=0;orthogonalLoop=1;jettySize=auto;html=1;entryX=0;entryY=0.5;entryDx=0;entryDy=0;" edge="1" parent="1" source="z2hC-M6QyXwjL48q8HnM-4" target="z2hC-M6QyXwjL48q8HnM-16">
          <mxGeometry relative="1" as="geometry">
            <mxPoint x="310" y="270" as="targetPoint" />
          </mxGeometry>
        </mxCell>
        <mxCell id="z2hC-M6QyXwjL48q8HnM-3" value="POST /v1/metrics" style="edgeLabel;html=1;align=center;verticalAlign=middle;resizable=0;points=[];" vertex="1" connectable="0" parent="z2hC-M6QyXwjL48q8HnM-2">
          <mxGeometry x="-0.3778" y="-4" relative="1" as="geometry">
            <mxPoint x="26" as="offset" />
          </mxGeometry>
        </mxCell>
        <mxCell id="z2hC-M6QyXwjL48q8HnM-4" value="Metrics&lt;br&gt;simulator&lt;br&gt;[Golang]" style="rounded=0;whiteSpace=wrap;html=1;" vertex="1" parent="1">
          <mxGeometry x="40" y="250" width="120" height="60" as="geometry" />
        </mxCell>
        <mxCell id="z2hC-M6QyXwjL48q8HnM-12" value="&lt;b&gt;TimescaleDB&lt;/b&gt;" style="shape=cylinder3;whiteSpace=wrap;html=1;boundedLbl=1;backgroundOutline=1;size=15;fillColor=#f5f5f5;strokeColor=#666666;fontColor=#333333;" vertex="1" parent="1">
          <mxGeometry x="327.5" y="370" width="90" height="90" as="geometry" />
        </mxCell>
        <mxCell id="z2hC-M6QyXwjL48q8HnM-15" style="edgeStyle=orthogonalEdgeStyle;rounded=0;orthogonalLoop=1;jettySize=auto;html=1;exitX=0.5;exitY=1;exitDx=0;exitDy=0;" edge="1" parent="1" source="z2hC-M6QyXwjL48q8HnM-16" target="z2hC-M6QyXwjL48q8HnM-12">
          <mxGeometry relative="1" as="geometry" />
        </mxCell>
        <mxCell id="z2hC-M6QyXwjL48q8HnM-16" value="&lt;font style=&quot;font-size: 14px;&quot;&gt;&lt;b&gt;metric-server-api&lt;/b&gt;&lt;/font&gt;&lt;br&gt;[Fiber, Golang]" style="rounded=1;whiteSpace=wrap;html=1;fillColor=#dae8fc;strokeColor=#6c8ebf;" vertex="1" parent="1">
          <mxGeometry x="305" y="250" width="135" height="60" as="geometry" />
        </mxCell>
        <mxCell id="z2hC-M6QyXwjL48q8HnM-26" style="edgeStyle=orthogonalEdgeStyle;rounded=0;orthogonalLoop=1;jettySize=auto;html=1;" edge="1" parent="1" source="z2hC-M6QyXwjL48q8HnM-17" target="z2hC-M6QyXwjL48q8HnM-16">
          <mxGeometry relative="1" as="geometry" />
        </mxCell>
        <mxCell id="z2hC-M6QyXwjL48q8HnM-27" value="GET" style="edgeLabel;html=1;align=center;verticalAlign=middle;resizable=0;points=[];" vertex="1" connectable="0" parent="z2hC-M6QyXwjL48q8HnM-26">
          <mxGeometry x="-0.1524" y="2" relative="1" as="geometry">
            <mxPoint as="offset" />
          </mxGeometry>
        </mxCell>
        <mxCell id="z2hC-M6QyXwjL48q8HnM-17" value="&lt;b&gt;&lt;font style=&quot;font-size: 14px;&quot;&gt;metric-server-ui&lt;/font&gt;&lt;/b&gt;&lt;br&gt;[Next.js, Typescript]" style="rounded=1;whiteSpace=wrap;html=1;fillColor=#fff2cc;strokeColor=#d6b656;" vertex="1" parent="1">
          <mxGeometry x="302.5" y="130" width="140" height="60" as="geometry" />
        </mxCell>
        <mxCell id="z2hC-M6QyXwjL48q8HnM-31" value="&lt;b&gt;Backend&lt;/b&gt;" style="rounded=1;whiteSpace=wrap;html=1;fillColor=#dae8fc;strokeColor=#6c8ebf;" vertex="1" parent="1">
          <mxGeometry x="30" y="430" width="90" height="20" as="geometry" />
        </mxCell>
        <mxCell id="z2hC-M6QyXwjL48q8HnM-32" value="Legend:" style="text;html=1;strokeColor=none;fillColor=none;align=center;verticalAlign=middle;whiteSpace=wrap;rounded=0;fontStyle=4" vertex="1" parent="1">
          <mxGeometry x="20" y="370" width="60" height="30" as="geometry" />
        </mxCell>
        <mxCell id="z2hC-M6QyXwjL48q8HnM-33" value="&lt;b style=&quot;&quot;&gt;&lt;font style=&quot;font-size: 12px;&quot;&gt;Frontend&lt;/font&gt;&lt;/b&gt;" style="rounded=1;whiteSpace=wrap;html=1;fillColor=#fff2cc;strokeColor=#d6b656;" vertex="1" parent="1">
          <mxGeometry x="30" y="400" width="90" height="20" as="geometry" />
        </mxCell>
        <mxCell id="z2hC-M6QyXwjL48q8HnM-35" value="CLI" style="rounded=0;whiteSpace=wrap;html=1;" vertex="1" parent="1">
          <mxGeometry x="30" y="460" width="90" height="20" as="geometry" />
        </mxCell>
      </root>
    </mxGraphModel>
  </diagram>
</mxfile>
